PathFileType	4	(X/Y/Z)	8_coords_data.trc
DataRate	CameraRate	NumFrames	NumMarkers	Units	OrigDataRate	OrigDataStartFrame	OrigNumFrames
30.0	30.0	9	21	m	30.0	38	56
Frame#	Time	THUMB_TIP	THUMB_IP	THUMB_MCP	THUMB_CMC	INDEX_TIP	INDEX_DIP	INDEX_PIP	INDEX_MCP	MIDDLE_TIP	MIDDLE_DIP	MIDDLE_PIP	MIDDLE_MCP	RING_TIP	RING_DIP	RING_PIP	RING_MCP	PINKY_TIP	PINKY_DIP	PINKY_PIP	PINKY_MCP	WRIST
X1	Y1	Z1	X2	Y2	Z2	X3	Y3	Z3	X4	Y4	Z4	X5	Y5	Z5	X6	Y6	Z6	X7	Y7	Z7	X8	Y8	Z8	X9	Y9	Z9	X10	Y10	Z10	X11	Y11	Z11	X12	Y12	Z12	X13	Y13	Z13	X14	Y14	Z14	X15	Y15	Z15	X16	Y16	Z16	X17	Y17	Z17	X18	Y18	Z18	X19	Y19	Z19	X20	Y20	Z20	X21	Y21	Z21
37	1.2333333333333334	0.02088129997253418	-0.06132830047607422	0.9781300048828125	0.00018040199577808302	-0.04666849899291992	0.9880599975585938	-0.018751899719238282	-0.03375009918212891	1.0016699829101563	-0.03822439956665039	-0.011247599601745605	1.0072000122070313	-0.024541000366210937	-0.11108799743652344	0.9318319702148438	-0.03283489990234375	-0.09999349975585937	0.9485330200195312	-0.042594799041748045	-0.08991780090332031	0.9640609741210937	-0.05266699981689453	-0.06461479949951172	0.9876199951171875	-0.013919300079345703	-0.0372333984375	0.9636619873046876	-0.022439899444580077	-0.05226919937133789	0.9497379760742187	-0.043021400451660155	-0.067252197265625	0.9458400268554688	-0.0661178970336914	-0.053790401458740235	0.9759349975585937	-0.015587800025939942	-0.02775779914855957	0.95439501953125	-0.028620500564575196	-0.040017398834228515	0.9428270263671875	-0.050701000213623046	-0.050900901794433594	0.938208984375	-0.06796430206298829	-0.03701480102539063	0.965583984375	-0.041951000213623045	-0.03895759963989258	0.9048389892578125	-0.051025100708007816	-0.03328770065307617	0.9205449829101563	-0.0593390998840332	-0.02866629981994629	0.9350830078125	-0.066160400390625	-0.018867900848388672	0.9595189819335938	-0.06709300231933593	0.005443540096282959	1.0246500244140626
38	1.2666666666666666	0.01779680061340332	-0.071135498046875	0.9884439697265625	-0.0012486699819564818	-0.052669898986816406	0.9941840209960937	-0.02062299919128418	-0.03658869934082031	1.0045599975585937	-0.038785198211669925	-0.012163999557495118	1.0094000244140624	-0.021975900650024412	-0.09734980010986329	0.91993701171875	-0.032316398620605466	-0.08893699645996093	0.936947998046875	-0.04382820129394531	-0.08082140350341797	0.9534030151367188	-0.05521139907836914	-0.05940999984741211	0.9802960205078125	0.00146465003490448	-0.04849879837036133	0.9324000244140624	-0.0193887996673584	-0.055644798278808597	0.9313560180664062	-0.04505229949951172	-0.060418399810791015	0.9370079956054688	-0.06476640319824219	-0.04549710083007812	0.9684310302734375	-0.005719989776611328	-0.03388690185546875	0.9286170043945312	-0.026333499908447265	-0.03869929885864258	0.9266179809570313	-0.0509192008972168	-0.041143199920654294	0.9307550048828125	-0.06514430236816406	-0.027648799896240233	0.9602639770507813	-0.03782720184326172	-0.02490909957885742	0.9005659790039062	-0.04720270156860352	-0.02018519973754883	0.9166370239257813	-0.05561380004882813	-0.016418899536132812	0.9314550170898438	-0.06268780136108398	-0.008963780403137207	0.9567780151367188	-0.06764550018310547	0.0069760999679565425	1.02543994140625
39	1.3	0.009442279815673828	-0.08052149963378906	0.9946820068359375	-0.0058360700607299806	-0.0585250015258789	0.9980460205078125	-0.023432199478149413	-0.03931930160522461	1.0069000244140625	-0.03918560028076172	-0.012523699760437011	1.0106300048828125	-0.020441099166870116	-0.08693679809570312	0.910447998046875	-0.030783300399780274	-0.07935099792480468	0.9279669799804687	-0.04249039840698242	-0.07197899627685547	0.9449970092773438	-0.05411180114746094	-0.05338019943237305	0.973906982421875	-0.004223219871520996	-0.05631209945678711	0.9050079956054687	-0.024622800827026368	-0.05508470153808594	0.9147899780273437	-0.04723759841918945	-0.0524547004699707	0.9291519775390625	-0.06130849838256836	-0.03720920181274414	0.9627919921875	-0.009922690391540527	-0.03700859832763672	0.9019739990234374	-0.029537200927734375	-0.0341067008972168	0.9115399780273438	-0.05007740020751953	-0.03037779998779297	0.92522900390625	-0.060396800994873046	-0.018534900665283204	0.9571749877929687	-0.035439998626708984	-0.011276300430297852	0.8961110229492187	-0.043570701599121096	-0.0074042601585388185	0.9140850219726563	-0.05092789840698242	-0.0046947097778320315	0.9297670288085937	-0.05723360061645508	0.00016947600245475702	0.9556409912109375	-0.06835199737548828	0.008748729705810547	1.025449951171875
40	1.3333333333333333	-0.005543010234832764	-0.08929789733886719	0.9940969848632812	-0.015100000381469726	-0.06506300354003906	0.9987620239257813	-0.02828960037231445	-0.04271049880981445	1.008489990234375	-0.04022330093383789	-0.013384300231933594	1.0123200073242187	-0.01886389923095703	-0.0770896987915039	0.9032969970703125	-0.028637800216674805	-0.07047689819335938	0.9215120239257812	-0.040052501678466794	-0.06352920150756836	0.9390540161132812	-0.05216289901733399	-0.04741310119628906	0.9697589721679688	-0.013147899627685547	-0.05385540008544922	0.8889609985351562	-0.02881209945678711	-0.04938710021972656	0.9052410278320312	-0.04736169815063476	-0.04390309906005859	0.924405029296875	-0.058083301544189454	-0.02979330062866211	0.9596690063476563	-0.01648349952697754	-0.03140430068969727	0.8894860229492187	-0.03233620071411133	-0.02649799919128418	0.9045380249023437	-0.04906370162963867	-0.021325700759887694	0.9223839721679687	-0.05620989990234375	-0.011005800247192382	0.9557550048828125	-0.035017200469970707	-0.0008907030224800111	0.8941079711914063	-0.041696800231933596	0.002247020006179809	0.9129929809570313	-0.047820899963378904	0.004282690048217773	0.9295419921875	-0.05259609985351563	0.00767018985748291	0.9558619995117188	-0.06810500335693359	0.010777199745178222	1.0256800537109374
41	1.3666666666666667	-0.02472870063781738	-0.09362370300292969	0.985926025390625	-0.02861199951171875	-0.06887680053710937	0.9938880004882813	-0.03697109985351563	-0.04587030029296875	1.00625	-0.04309489822387695	-0.01470359992980957	1.013239990234375	-0.017851999282836914	-0.06773000335693359	0.8973809814453125	-0.027320899963378907	-0.061998199462890625	0.915947998046875	-0.038735401153564455	-0.05572359848022461	0.9338060302734374	-0.05190890121459961	-0.04179800033569336	0.9655020141601562	-0.016336700439453126	-0.04556240081787109	0.8804569702148437	-0.029083999633789062	-0.040567100524902346	0.8993280029296875	-0.04516849899291992	-0.03458229827880859	0.9205590209960938	-0.05534590148925781	-0.02279400062561035	0.9566740112304688	-0.017057300567626953	-0.02172089958190918	0.8833679809570313	-0.030528200149536132	-0.016653900146484376	0.9009630126953125	-0.04519779968261719	-0.011542699813842773	0.92089599609375	-0.051871299743652344	-0.004042190074920654	0.9544429931640624	-0.030311500549316406	0.010493599891662597	0.8945159912109375	-0.03665449905395508	0.012188099861145019	0.9137349853515625	-0.04257569885253906	0.013075900077819825	0.930375	-0.047345401763916016	0.014176699638366699	0.9566099853515625	-0.06815579986572265	0.012215399742126464	1.0257099609375
42	1.4	-0.04084270095825195	-0.09243930053710937	0.976333984375	-0.040152301788330076	-0.06821920013427735	0.987155029296875	-0.04416249847412109	-0.0457677001953125	1.0018400268554688	-0.0461172981262207	-0.014559900283813477	1.012	-0.02165920066833496	-0.05928499984741211	0.8906699829101562	-0.030282800674438476	-0.05433480072021484	0.9099749755859375	-0.0408760986328125	-0.04861669921875	0.928583984375	-0.05347420120239258	-0.0365177001953125	0.9612249755859374	-0.017064199447631836	-0.03486380004882812	0.8751900024414062	-0.028583499908447267	-0.030702600479125975	0.8953259887695313	-0.043924400329589844	-0.025410299301147462	0.9176320190429688	-0.054691699981689455	-0.016561700820922853	0.9539719848632813	-0.015514300346374512	-0.011467900276184082	0.8802429809570312	-0.02798509979248047	-0.007085619926452636	0.8990609741210938	-0.04190140151977539	-0.002802059888839721	0.9197589721679688	-0.04979249954223633	0.001955770015716552	0.953530029296875	-0.024429300308227538	0.0194143009185791	0.8960859985351562	-0.03161199951171875	0.020090999603271483	0.9151190185546875	-0.03812049865722656	0.020027900695800783	0.9316439819335938	-0.04410240173339844	0.019358400344848634	0.9575180053710938	-0.06887519836425782	0.01375850009918213	1.024969970703125
43	1.4333333333333333	-0.047807201385498044	-0.08918620300292969	0.97077099609375	-0.045152400970458986	-0.0657020034790039	0.9829240112304688	-0.0471708984375	-0.043807998657226566	0.9987899780273437	-0.04742649841308594	-0.01300220012664795	1.0101699829101562	-0.026637699127197264	-0.052407699584960936	0.8854509887695312	-0.034195701599121095	-0.04819599914550781	0.905531005859375	-0.04376699829101562	-0.04312490081787109	0.9248380126953125	-0.05492399978637695	-0.03237519836425781	0.9586430053710937	-0.020543899536132813	-0.027520700454711913	0.8710579833984375	-0.03091010093688965	-0.02411829948425293	0.8921380004882813	-0.045149600982666016	-0.019482599258422852	0.9152659912109375	-0.05542850112915039	-0.01209179973602295	0.9521630249023437	-0.019370899200439454	-0.0052442197799682615	0.87702197265625	-0.03043280029296875	-0.001300410032272338	0.8968209838867187	-0.04304840087890625	0.002510380029678344	0.9182990112304688	-0.050234798431396485	0.006154910087585449	0.9523900146484375	-0.0271963996887207	0.024502199172973634	0.89485302734375	-0.03335309982299805	0.024761699676513673	0.9143250122070312	-0.039089599609375	0.024378000259399416	0.931072998046875	-0.04391680145263672	0.023056400299072265	0.9571079711914062	-0.06918840026855469	0.015713299751281738	1.023969970703125
44	1.4666666666666666	-0.05345380020141602	-0.08696269989013672	0.9672429809570312	-0.049319000244140626	-0.06387039947509765	0.979989990234375	-0.04988779830932617	-0.04234400177001953	0.9966300048828125	-0.049029800415039064	-0.011825099945068359	1.00897998046875	-0.028587900161743163	-0.04869129943847656	0.8829619750976563	-0.03562789916992187	-0.04474729919433594	0.9033150024414063	-0.044827598571777344	-0.03986059951782227	0.9228889770507812	-0.0560890007019043	-0.029656099319458007	0.9569030151367187	-0.022955799102783205	-0.023635000228881837	0.8684719848632813	-0.03228030014038086	-0.020499900817871095	0.890155029296875	-0.04568740081787109	-0.016042499542236327	0.9138569946289062	-0.05585359954833984	-0.009150389671325684	0.9510670166015625	-0.022692899703979492	-0.0011943700313568112	0.8745750122070313	-0.032703800201416014	0.002446369886398315	0.8953150024414063	-0.044293701171875	0.005965720176696778	0.9174650268554687	-0.05028060150146484	0.008832759857177734	0.951510986328125	-0.029343599319458007	0.028087799072265624	0.8941279907226563	-0.034682998657226564	0.028015899658203124	0.91385400390625	-0.039749900817871095	0.027348100662231447	0.9307109985351563	-0.043767601013183596	0.025459299087524413	0.9567310180664063	-0.07007389831542969	0.017177499771118165	1.0233499755859374
45	1.5	-0.05998640060424805	-0.08470230102539063	0.9627570190429687	-0.05413249969482422	-0.06241289901733398	0.9764019775390625	-0.052970001220703125	-0.041526401519775394	0.9941939697265625	-0.051032699584960935	-0.011553899765014648	1.00777001953125	-0.03130500030517578	-0.04447539901733399	0.8798900146484375	-0.03765010070800781	-0.0411338996887207	0.900572021484375	-0.04646689987182617	-0.036717399597167966	0.9204010009765625	-0.0574192008972168	-0.027297199249267576	0.9549660034179688	-0.02478569984436035	-0.018754999160766603	0.8662059936523437	-0.03333580017089844	-0.01633009910583496	0.888406005859375	-0.046166000366210935	-0.012402400016784668	0.912614013671875	-0.05652870178222656	-0.00669713020324707	0.9498179931640625	-0.023747499465942384	0.003345870018005371	0.8733790283203124	-0.033205101013183594	0.006452889919281006	0.894447021484375	-0.04433380126953125	0.00936670970916748	0.9170189819335938	-0.05030210113525391	0.01109440040588379	0.95102001953125	-0.0282318000793457	0.03187409973144531	0.8946510009765625	-0.03378089904785156	0.03117060089111328	0.9143209838867188	-0.03898709869384766	0.02999600028991699	0.9311190185546875	-0.04321709823608398	0.027135000228881836	0.95689697265625	-0.07064360046386718	0.017358999252319336	1.022219970703125
